<svg width="76" height="49" viewBox="0 0 76 49" fill="none" xmlns="http://www.w3.org/2000/svg">
<path d="M16.2825 42.5469L19.7864 38.5449H17.7884L14.6653 42.125H14.6184V38.5449H12.8489V47H14.6184V43.2852H14.6653L17.8528 47H20.0618L16.2825 42.5469ZM22.7046 45.8633C22.1245 45.8633 21.7378 45.5703 21.7378 45.1016C21.7378 44.6562 22.1011 44.3691 22.7398 44.3223L24.064 44.2402V44.6973C24.064 45.377 23.4487 45.8633 22.7046 45.8633ZM22.1421 47.0996C22.9273 47.0996 23.7066 46.707 24.0581 46.0391H24.0933V47H25.7456V42.6816C25.7456 41.416 24.6968 40.584 23.0855 40.584C21.4214 40.584 20.3843 41.4219 20.3198 42.6406H21.8843C21.9663 42.1777 22.3706 41.8613 23.0093 41.8613C23.6538 41.8613 24.064 42.2012 24.064 42.7871V43.2031L22.482 43.2969C20.9175 43.3906 20.0386 44.0527 20.0386 45.1953C20.0386 46.3262 20.9468 47.0996 22.1421 47.0996ZM31.7517 40.7188H26.3025V42.0078H28.1775V47H29.8826V42.0078H31.7517V40.7188ZM34.6934 45.8633C34.1133 45.8633 33.7266 45.5703 33.7266 45.1016C33.7266 44.6562 34.0898 44.3691 34.7285 44.3223L36.0527 44.2402V44.6973C36.0527 45.377 35.4375 45.8633 34.6934 45.8633ZM34.1309 47.0996C34.916 47.0996 35.6953 46.707 36.0469 46.0391H36.082V47H37.7344V42.6816C37.7344 41.416 36.6855 40.584 35.0742 40.584C33.4102 40.584 32.373 41.4219 32.3086 42.6406H33.873C33.9551 42.1777 34.3594 41.8613 34.998 41.8613C35.6426 41.8613 36.0527 42.2012 36.0527 42.7871V43.2031L34.4707 43.2969C32.9062 43.3906 32.0273 44.0527 32.0273 45.1953C32.0273 46.3262 32.9355 47.0996 34.1309 47.0996ZM40.9983 43.9883L41.1213 42.0078H42.7151V47H44.4202V40.7188H39.6565L39.4807 43.877C39.428 44.8672 39.2463 45.5938 38.6487 45.5938C38.4788 45.5938 38.3498 45.5703 38.2795 45.5527V46.9941C38.3674 47.0293 38.5608 47.0762 38.8245 47.0762C40.3772 47.0762 40.887 45.8516 40.9983 43.9883ZM48.2993 47.1348C50.1977 47.1348 51.4106 45.9219 51.4106 43.8535C51.4106 41.8145 50.1802 40.584 48.2993 40.584C46.4184 40.584 45.188 41.8203 45.188 43.8535C45.188 45.916 46.4009 47.1348 48.2993 47.1348ZM48.2993 45.8281C47.4555 45.8281 46.9223 45.1191 46.9223 43.8594C46.9223 42.6113 47.4673 41.8906 48.2993 41.8906C49.1313 41.8906 49.6704 42.6113 49.6704 43.8594C49.6704 45.1191 49.1372 45.8281 48.2993 45.8281ZM56.5378 42.0078V40.7188H52.1609V47H53.8659V42.0078H56.5378Z" fill="white"/>
<path d="M29.6667 10.2C28.9303 10.2 28.3333 10.782 28.3333 11.5C28.3333 12.218 28.9303 12.8 29.6667 12.8H40.3333C41.0697 12.8 41.6667 12.218 41.6667 11.5C41.6667 10.782 41.0697 10.2 40.3333 10.2H29.6667Z" fill="white"/>
<path d="M28.3333 16.7C28.3333 15.982 28.9303 15.4 29.6667 15.4H40.3333C41.0697 15.4 41.6667 15.982 41.6667 16.7C41.6667 17.418 41.0697 18 40.3333 18H29.6667C28.9303 18 28.3333 17.418 28.3333 16.7Z" fill="white"/>
<path d="M29.6667 20.6C28.9303 20.6 28.3333 21.182 28.3333 21.9C28.3333 22.618 28.9303 23.2 29.6667 23.2H35C35.7364 23.2 36.3333 22.618 36.3333 21.9C36.3333 21.182 35.7364 20.6 35 20.6H29.6667Z" fill="white"/>
<path fill-rule="evenodd" clip-rule="evenodd" d="M25.6667 5C24.1939 5 23 6.16406 23 7.6V28.4C23 29.8359 24.1939 31 25.6667 31H44.3333C45.8061 31 47 29.8359 47 28.4V7.6C47 6.16406 45.8061 5 44.3333 5H25.6667ZM44.3333 7.6H25.6667L25.6667 28.4H37.0829L44.3333 20.7417V7.6ZM44.3333 28.4H40.712L44.3333 24.5749V28.4Z" fill="white"/>
</svg>
