<svg width="76" height="49" viewBox="0 0 76 49" fill="none" xmlns="http://www.w3.org/2000/svg">
<path d="M20.5384 46H22.302V37.5449H20.597L16.7591 43.2695H16.6887V37.5449H14.9251V46H16.6302L20.468 40.2812H20.5384V46ZM29.0991 41.8633C28.9351 40.5449 27.8921 39.584 26.2749 39.584C24.3999 39.584 23.2105 40.8496 23.2105 42.8535C23.2105 44.8926 24.3999 46.1348 26.2866 46.1348C27.8804 46.1348 28.9527 45.2441 29.105 43.8555H27.5112C27.3648 44.4473 26.9429 44.793 26.3042 44.793C25.4546 44.793 24.9331 44.0781 24.9331 42.8535C24.9331 41.6523 25.4546 40.9258 26.2984 40.9258C26.9487 40.9258 27.3589 41.3184 27.4995 41.8633H29.0991ZM34.7537 39.7188H29.3045V41.0078H31.1795V46H32.8845V41.0078H34.7537V39.7188ZM38.1523 46.1348C40.0508 46.1348 41.2637 44.9219 41.2637 42.8535C41.2637 40.8145 40.0332 39.584 38.1523 39.584C36.2715 39.584 35.041 40.8203 35.041 42.8535C35.041 44.916 36.2539 46.1348 38.1523 46.1348ZM38.1523 44.8281C37.3086 44.8281 36.7754 44.1191 36.7754 42.8594C36.7754 41.6113 37.3203 40.8906 38.1523 40.8906C38.9844 40.8906 39.5234 41.6113 39.5234 42.8594C39.5234 44.1191 38.9902 44.8281 38.1523 44.8281ZM45.6819 39.6191C44.7737 39.6191 44.0764 40.0762 43.7366 40.8145H43.7014V39.7188H42.0139V48.0508H43.7248V44.9453H43.76C44.094 45.6543 44.7971 46.0996 45.7112 46.0996C47.2815 46.0996 48.2541 44.8809 48.2541 42.8594C48.2541 40.832 47.2756 39.6191 45.6819 39.6191ZM45.1077 44.7227C44.2698 44.7227 43.719 43.9961 43.719 42.8594C43.719 41.7344 44.2698 40.9902 45.1077 40.9902C45.9631 40.9902 46.5022 41.7227 46.5022 42.8594C46.5022 44.002 45.9631 44.7227 45.1077 44.7227ZM50.7036 46L53.1997 42.0273H53.2466V46H54.9223V39.7188H53.2466L50.7505 43.6445H50.7036V39.7188H49.0278V46H50.7036ZM58.5202 42.7715C57.9226 42.7715 57.5359 42.4082 57.5359 41.9043C57.5359 41.3477 57.9167 40.9902 58.5202 40.9902H59.5456V42.7715H58.5202ZM59.5456 46H61.2155V39.7188H58.3503C56.8269 39.7188 55.8366 40.5625 55.8366 41.8984C55.8366 42.8008 56.364 43.4453 57.2195 43.7148L55.5671 46H57.4655L58.8601 43.9727H59.5456V46Z" fill="white"/>
<path d="M34.6667 16.6667C33.8613 16.6667 33.2083 17.3196 33.2083 18.125C33.2083 18.9304 33.8613 19.5833 34.6667 19.5833H40.5C41.3054 19.5833 41.9583 18.9304 41.9583 18.125C41.9583 17.3196 41.3054 16.6667 40.5 16.6667H34.6667Z" fill="white"/>
<path fill-rule="evenodd" clip-rule="evenodd" d="M23 13.75H24.4583V28.3333C24.4583 29.9442 25.7642 31.25 27.375 31.25H47.7917C49.4025 31.25 50.7083 29.9442 50.7083 28.3333V13.75H52.1667V7.91667C52.1667 6.30584 50.8608 5 49.25 5H25.9167C24.3058 5 23 6.30584 23 7.91667V13.75ZM49.25 7.91667H25.9167V10.8333H49.25V7.91667ZM27.375 13.75H47.7917V28.3333H27.375V13.75Z" fill="white"/>
</svg>
