<svg width="76" height="49" viewBox="0 0 76 49" fill="none" xmlns="http://www.w3.org/2000/svg">
<path d="M24.8237 47.1875C26.8335 47.1875 28.2573 46.0391 28.5327 44.2344H26.7925C26.5464 45.1367 25.8198 45.6816 24.8296 45.6816C23.4761 45.6816 22.6265 44.5684 22.6265 42.7637C22.6265 40.9824 23.4878 39.8633 24.8237 39.8633C25.7964 39.8633 26.564 40.4668 26.7866 41.3984H28.5269C28.3042 39.5996 26.7925 38.3574 24.8237 38.3574C22.3745 38.3574 20.8218 40.0449 20.8218 42.7695C20.8218 45.5 22.3628 47.1875 24.8237 47.1875ZM32.0486 41.8027C32.6111 41.8027 32.9275 42.0664 32.9275 42.5234C32.9275 42.998 32.5877 43.2617 31.9607 43.2617H31.0349V41.8027H32.0486ZM32.0486 44.252C32.7752 44.252 33.1619 44.5332 33.1619 45.0781C33.1619 45.623 32.7927 45.916 32.1248 45.916H31.0349V44.252H32.0486ZM29.3591 47H32.5642C33.988 47 34.8787 46.2852 34.8787 45.1836C34.8787 44.3926 34.2986 43.8066 33.4607 43.707V43.6602C34.1052 43.5605 34.5974 42.9746 34.5974 42.3008C34.5974 41.3105 33.8123 40.7188 32.5056 40.7188H29.3591V47ZM38.1836 43.7715C37.5859 43.7715 37.1992 43.4082 37.1992 42.9043C37.1992 42.3477 37.5801 41.9902 38.1836 41.9902H39.209V43.7715H38.1836ZM39.209 47H40.8789V40.7188H38.0137C36.4902 40.7188 35.5 41.5625 35.5 42.8984C35.5 43.8008 36.0273 44.4453 36.8828 44.7148L35.2305 47H37.1289L38.5234 44.9727H39.209V47ZM44.4182 47.1348C46.1233 47.1348 47.178 46.3555 47.178 45.1191C47.178 44.4219 46.7737 43.918 46.012 43.7188V43.6719C46.5979 43.5078 46.9553 42.998 46.9553 42.3711C46.9553 41.252 46.053 40.584 44.3772 40.584C42.842 40.584 41.8459 41.3516 41.7229 42.6113H43.3342C43.4104 42.1367 43.7913 41.873 44.3889 41.873C44.9924 41.873 45.2913 42.1484 45.2913 42.5586C45.2913 43.0039 44.9807 43.2207 44.3772 43.2207H43.5569V44.334H44.4241C45.1213 44.334 45.4729 44.5625 45.4729 45.0547C45.4729 45.5117 45.0979 45.8105 44.4182 45.8105C43.7854 45.8105 43.3811 45.541 43.2346 45.0078H41.6057C41.7229 46.3379 42.7893 47.1348 44.4182 47.1348ZM50.6235 43.7949C51.2388 43.7949 51.643 44.1816 51.643 44.7559C51.643 45.3301 51.2446 45.7227 50.6235 45.7227H49.6802V43.7949H50.6235ZM47.9751 47H50.9048C52.3872 47 53.3364 46.1328 53.3364 44.7676C53.3364 43.4023 52.3872 42.5352 50.9048 42.5352H49.6802V40.7188H47.9751V47Z" fill="white"/>
<path d="M22.8704 14.727C27.9021 10.5034 32.7693 8.52543 37.5 8.52542C42.2307 8.52542 47.0979 10.5034 52.1296 14.727C52.8721 15.3502 53.9756 15.2492 54.5943 14.5013C55.2131 13.7534 55.1128 12.6419 54.3703 12.0187C48.9021 7.42877 43.2693 4.99999 37.5 5C31.7307 5 26.0979 7.42879 20.6297 12.0187C19.8872 12.642 19.7869 13.7535 20.4057 14.5014C21.0244 15.2492 22.1279 15.3503 22.8704 14.727Z" fill="white"/>
<path d="M28.05 20.0712C31.324 17.5979 34.4646 16.4576 37.5 16.4576C40.5354 16.4576 43.676 17.5979 46.95 20.0712C47.7232 20.6553 48.8201 20.4975 49.4 19.7186C49.9799 18.9398 49.8232 17.835 49.05 17.2508C45.3239 14.436 41.4646 12.9322 37.5 12.9322C33.5354 12.9322 29.6761 14.436 25.95 17.2508C25.1768 17.835 25.0201 18.9398 25.6 19.7186C26.1799 20.4975 27.2768 20.6553 28.05 20.0712Z" fill="white"/>
<path d="M37.5 31C38.4665 31 39.25 30.2108 39.25 29.2373C39.25 28.2638 38.4665 27.4746 37.5 27.4746C36.5335 27.4746 35.75 28.2638 35.75 29.2373C35.75 30.2108 36.5335 31 37.5 31Z" fill="white"/>
<path d="M37.5 23.7288C36.2146 23.7288 34.824 24.208 33.3 25.3593C32.5268 25.9434 31.4299 25.7856 30.85 25.0068C30.2701 24.228 30.4268 23.1231 31.2 22.539C33.1761 21.0462 35.2854 20.2034 37.5 20.2034C39.7146 20.2034 41.824 21.0462 43.8 22.539C44.5732 23.1232 44.7299 24.228 44.15 25.0068C43.5701 25.7857 42.4732 25.9435 41.7 25.3594C40.176 24.2081 38.7854 23.7288 37.5 23.7288Z" fill="white"/>
</svg>
