<svg width="76" height="49" viewBox="0 0 76 49" fill="none" xmlns="http://www.w3.org/2000/svg">
<path d="M22.2066 43.3672H23.3433C24.3101 43.3672 24.8902 43.8066 24.8902 44.5449C24.8902 45.2832 24.2808 45.7871 23.3726 45.7871C22.4116 45.7871 21.773 45.3242 21.7202 44.5977H20.0269C20.103 46.1797 21.4214 47.2168 23.355 47.2168C25.3003 47.2168 26.7066 46.1445 26.7066 44.6621C26.7066 43.5312 25.9859 42.7285 24.8433 42.5996V42.5527C25.7925 42.3535 26.437 41.5742 26.437 40.6191C26.437 39.2598 25.2066 38.3281 23.396 38.3281C21.4976 38.3281 20.273 39.3242 20.2144 40.918H21.8491C21.896 40.1738 22.4702 39.7051 23.3491 39.7051C24.2163 39.7051 24.7495 40.1328 24.7495 40.8242C24.7495 41.5215 24.1695 41.9902 23.3257 41.9902H22.2066V43.3672ZM29.9353 45.8633C29.3552 45.8633 28.9685 45.5703 28.9685 45.1016C28.9685 44.6562 29.3318 44.3691 29.9705 44.3223L31.2947 44.2402V44.6973C31.2947 45.377 30.6795 45.8633 29.9353 45.8633ZM29.3728 47.0996C30.158 47.0996 30.9373 46.707 31.2888 46.0391H31.324V47H32.9763V42.6816C32.9763 41.416 31.9275 40.584 30.3162 40.584C28.6521 40.584 27.615 41.4219 27.5505 42.6406H29.115C29.197 42.1777 29.6013 41.8613 30.24 41.8613C30.8845 41.8613 31.2947 42.2012 31.2947 42.7871V43.2031L29.7127 43.2969C28.1482 43.3906 27.2693 44.0527 27.2693 45.1953C27.2693 46.3262 28.1775 47.0996 29.3728 47.0996ZM37.2363 43.625L39.7441 40.7188H37.7871L35.7012 43.2441H35.6543V40.7188H33.9492V47H35.6543V44.3047H35.7012L37.8223 47H39.8906L37.2363 43.625ZM42.6623 45.8633C42.0823 45.8633 41.6955 45.5703 41.6955 45.1016C41.6955 44.6562 42.0588 44.3691 42.6975 44.3223L44.0217 44.2402V44.6973C44.0217 45.377 43.4065 45.8633 42.6623 45.8633ZM42.0998 47.0996C42.885 47.0996 43.6643 46.707 44.0159 46.0391H44.051V47H45.7034V42.6816C45.7034 41.416 44.6545 40.584 43.0432 40.584C41.3791 40.584 40.342 41.4219 40.2776 42.6406H41.842C41.9241 42.1777 42.3284 41.8613 42.967 41.8613C43.6116 41.8613 44.0217 42.2012 44.0217 42.7871V43.2031L42.4397 43.2969C40.8752 43.3906 39.9963 44.0527 39.9963 45.1953C39.9963 46.3262 40.9045 47.0996 42.0998 47.0996ZM49.2192 47.1348C50.9243 47.1348 51.979 46.3555 51.979 45.1191C51.979 44.4219 51.5747 43.918 50.813 43.7188V43.6719C51.3989 43.5078 51.7563 42.998 51.7563 42.3711C51.7563 41.252 50.854 40.584 49.1782 40.584C47.643 40.584 46.647 41.3516 46.5239 42.6113H48.1352C48.2114 42.1367 48.5923 41.873 49.1899 41.873C49.7934 41.873 50.0923 42.1484 50.0923 42.5586C50.0923 43.0039 49.7817 43.2207 49.1782 43.2207H48.3579V44.334H49.2251C49.9223 44.334 50.2739 44.5625 50.2739 45.0547C50.2739 45.5117 49.8989 45.8105 49.2192 45.8105C48.5864 45.8105 48.1821 45.541 48.0356 45.0078H46.4067C46.5239 46.3379 47.5903 47.1348 49.2192 47.1348ZM38.1387 61H39.8438V54.7188H38.1387V61ZM34.8105 57.7949C35.4258 57.7949 35.8301 58.1816 35.8301 58.7559C35.8301 59.3301 35.4316 59.7227 34.8105 59.7227H33.8672V57.7949H34.8105ZM32.1621 61H35.0918C36.5742 61 37.5234 60.1328 37.5234 58.7676C37.5234 57.4023 36.5742 56.5352 35.0918 56.5352H33.8672V54.7188H32.1621V61Z" fill="white"/>
<path fill-rule="evenodd" clip-rule="evenodd" d="M25.6269 7.36933C26.0239 6.17834 27.1385 5.375 28.3939 5.375H44.6061C45.8615 5.375 46.9761 6.17834 47.3731 7.36934L50.9337 18.051C51.0328 18.3484 51.0833 18.6598 51.0833 18.9733V28.7083C51.0833 30.3192 49.7775 31.625 48.1667 31.625H24.8333C23.2225 31.625 21.9167 30.3192 21.9167 28.7083V18.9733C21.9167 18.6598 21.9672 18.3484 22.0663 18.051L25.6269 7.36933ZM28.3939 8.29167H44.6061L48.0089 18.5H43.7917C42.4294 18.5 41.3814 18.8494 40.5469 19.4753C39.7973 20.0374 39.3128 20.7654 38.971 21.279L38.9324 21.3369C38.547 21.9151 38.3104 22.2464 37.9948 22.4831C37.7356 22.6775 37.3253 22.875 36.5 22.875C35.6747 22.875 35.2644 22.6775 35.0052 22.4831C34.6897 22.2464 34.453 21.9151 34.0676 21.3369L34.029 21.279C33.6872 20.7654 33.2027 20.0374 32.4531 19.4753C31.6186 18.8494 30.5706 18.5 29.2083 18.5H24.9911L28.3939 8.29167ZM24.8333 21.4167V28.7083H48.1667V21.4167H43.7917C42.9664 21.4167 42.5561 21.6142 42.2969 21.8086C41.9813 22.0453 41.7447 22.3766 41.3592 22.9548L41.3207 23.0127C40.9789 23.5262 40.4943 24.2543 39.7448 24.8164C38.9103 25.4423 37.8622 25.7917 36.5 25.7917C35.1378 25.7917 34.0897 25.4423 33.2552 24.8164C32.5057 24.2542 32.0211 23.5262 31.6793 23.0127L31.6408 22.9548C31.2553 22.3766 31.0187 22.0453 30.7031 21.8086C30.4439 21.6142 30.0336 21.4167 29.2083 21.4167H24.8333Z" fill="white"/>
</svg>
